<!-- icon666.com - MILLIONS vector ICONS FREE --><svg id="Layer_1" enable-background="new 0 0 64 64" viewBox="0 0 64 64" xmlns="http://www.w3.org/2000/svg"><path d="m8.5 10.2c-.8 0-1.4-.6-1.4-1.4s.6-1.4 1.4-1.4h2.7c2.9 0 5.4 2.2 5.8 5.1l.2 1.7h38.2c.9.1 1.5.7 1.3 1.7l-4.5 19.2c-.7 3.1-3.4 5.2-6.5 5.2h-25.2l.2 1.7c.2 1.6 1.5 2.7 3.1 2.7h20.9c.8 0 1.4.6 1.4 1.4s-.6 1.4-1.4 1.4h-20.9c-2.9 0-5.4-2.2-5.8-5.1l-3.7-29.6c-.2-1.6-1.5-2.7-3.1-2.7zm9.1 6.9 2.6 20.6h25.6c1.9 0 3.5-1.2 3.9-3.1l4.1-17.6c0 .1-36.2.1-36.2.1z"></path><path d="m22.7 49c2.1 0 3.8 1.7 3.8 3.8s-1.7 3.8-3.8 3.8-3.8-1.7-3.8-3.8 1.7-3.8 3.8-3.8zm0 2.7c-.6 0-1.1.5-1.1 1 0 .6.5 1 1.1 1s1-.5 1-1c0-.6-.4-1-1-1z"></path><path d="m43.1 49c2.1 0 3.8 1.7 3.8 3.8s-1.7 3.8-3.8 3.8-3.8-1.7-3.8-3.8 1.7-3.8 3.8-3.8zm0 2.7c-.6 0-1 .5-1 1 0 .6.5 1 1 1 .6 0 1-.5 1-1 0-.6-.5-1-1-1z"></path></svg>