<svg width="17" height="17" viewBox="0 0 17 17" fill="none" xmlns="http://www.w3.org/2000/svg">
<path d="M8.49292 0.555223C4.07492 0.555223 0.49292 4.13722 0.49292 8.55522C0.49292 12.0902 2.78492 15.0882 5.96392 16.1462C6.36392 16.2202 6.51092 15.9722 6.51092 15.7612C6.51092 15.5702 6.50292 14.9402 6.49992 14.2722C4.27392 14.7562 3.80492 13.3282 3.80492 13.3282C3.44092 12.4032 2.91692 12.1572 2.91692 12.1572C2.19092 11.6602 2.97192 11.6712 2.97192 11.6712C3.77492 11.7272 4.19792 12.4952 4.19792 12.4952C4.91192 13.7182 6.06992 13.3642 6.52592 13.1602C6.59792 12.6432 6.80492 12.2902 7.03392 12.0902C5.25692 11.8882 3.38892 11.2022 3.38892 8.13622C3.38892 7.26322 3.70192 6.54922 4.21292 5.98922C4.12992 5.78722 3.85592 4.97422 4.28992 3.87222C4.28992 3.87222 4.96192 3.65722 6.49092 4.69222C7.12892 4.51522 7.81292 4.42622 8.49292 4.42322C9.17292 4.42622 9.85792 4.51522 10.4969 4.69222C12.0239 3.65722 12.6949 3.87222 12.6949 3.87222C13.1299 4.97422 12.8569 5.78822 12.7739 5.98922C13.2869 6.54922 13.5969 7.26322 13.5969 8.13622C13.5969 11.2092 11.7249 11.8852 9.94392 12.0832C10.2309 12.3312 10.4869 12.8182 10.4869 13.5642C10.4869 14.6342 10.4779 15.4962 10.4779 15.7592C10.4779 15.9722 10.6219 16.2212 11.0279 16.1432C14.2049 15.0842 16.4939 12.0862 16.4939 8.55322C16.4939 4.13522 12.9119 0.553223 8.49392 0.553223L8.49292 0.555223Z" fill="black"/>
</svg>
