<svg id="Layer_1" data-name="Layer 1" xmlns="http://www.w3.org/2000/svg" viewBox="0 0 63.75 63.75"><defs><style>.cls-1,.cls-2{fill:none;stroke-linecap:round;stroke-linejoin:round;stroke-width:4px;}.cls-1{stroke:#313131;}.cls-2{stroke:#519d61;}</style></defs><title>sport-logo</title><path class="cls-1" d="M218.38,323.75H208.25V308.5l14.25-15.25h5.63s0.25,10.24,9.88,10.5c9.62-.26,9.88-10.5,9.88-10.5h5.63l14.25,15.25v15.25H257.63" transform="translate(-206 -291.25)"/><path class="cls-2" d="M208,333.52l13.62,0a4.76,4.76,0,0,0,4.3-2.72l3.33-7a2.94,2.94,0,0,1,4.15-1.27l30.88,18.64a7.2,7.2,0,0,1,3.48,6.16V353H210.5l-0.11,0a3.7,3.7,0,0,1,.11-7h47.17" transform="translate(-206 -291.25)"/><line class="cls-2" x1="40.54" y1="33.13" x2="35.22" y2="41.84"/><line class="cls-2" x1="48.36" y1="37.48" x2="43.04" y2="46.2"/></svg>